# xmcd
#
# Track frame offsets:
#	150
#	31622
#	46518
#	88469
#	109384
#	143336
#	158765
#	170774
#	189071
#	219581
#	232474
#	247797
#	260940
#	293540
#	308682
#
# Disc length: 4458 seconds
#
# Revision: 1
# Processed by: cddbd v1.5.2PL0 Copyright (c) Steve Scherf et al.
# Submitted via: EasyCDDAExtractor 4.6.9.1
#
DISCID=c911680f
DTITLE=Various` - The No.1 Funky House Album 2 [CD 2)
DYEAR=2006
DGENRE=Funky House
TTITLE0=Tim Deluxe - It Just Won't Do
TTITLE1=David Morales pr. The Face ft. Juliet Roberts w. James Williams and Shar
TTITLE1=on Bryant - Needin' U (I Need U)
TTITLE2=Sandy B - Make the World Go Round
TTITLE3=Inner City - Good Life (Buena Vida)
TTITLE4=Gus Gus - David
TTITLE5=Sam La More - Takin' Hold
TTITLE6=Sub Sub ft. Melanie Williams - Ain't No Love (Ain't No Use)
TTITLE7=N-Joi - Anthem
TTITLE8=Kid Creme ft. Shawnee Taylor - Austin's Groove
TTITLE9=Danny Howells and Dick Trevor ft. Erire - Dusk Till Dawn
TTITLE10=Deepest Blue - Deepest Blue
TTITLE11=Raven Maize - Real Life
TTITLE12=Linus Loves ft. Sam Obernik - Stand Back
TTITLE13=Afro Medusa - Pasilda
TTITLE14=Blockster - You Should Be
EXTD=
EXTT0=
EXTT1=
EXTT2=
EXTT3=
EXTT4=
EXTT5=
EXTT6=
EXTT7=
EXTT8=
EXTT9=
EXTT10=
EXTT11=
EXTT12=
EXTT13=
EXTT14=
PLAYORDER=
